<?xml version="1.0" encoding="UTF-8" standalone="no"?>
<!-- Created with Inkscape (http://www.inkscape.org/) -->

<svg
   width="500"
   height="400"
   viewBox="0 0 132.29167 105.83333"
   version="1.1"
   id="svg8"
   sodipodi:docname="xbo-mask.svg"
   inkscape:version="1.3.2 (1:1.3.2+202404261509+091e20ef0f)"
   xmlns:inkscape="http://www.inkscape.org/namespaces/inkscape"
   xmlns:sodipodi="http://sodipodi.sourceforge.net/DTD/sodipodi-0.dtd"
   xmlns="http://www.w3.org/2000/svg"
   xmlns:svg="http://www.w3.org/2000/svg"
   xmlns:rdf="http://www.w3.org/1999/02/22-rdf-syntax-ns#"
   xmlns:cc="http://creativecommons.org/ns#"
   xmlns:dc="http://purl.org/dc/elements/1.1/">
  <defs
     id="defs2" />
  <sodipodi:namedview
     id="base"
     pagecolor="#ffffff"
     bordercolor="#666666"
     borderopacity="1.0"
     inkscape:pageopacity="0.0"
     inkscape:pageshadow="2"
     inkscape:zoom="1.3805155"
     inkscape:cx="529.87453"
     inkscape:cy="151.39272"
     inkscape:document-units="mm"
     inkscape:current-layer="layer3"
     showgrid="false"
     guidetolerance="10000"
     inkscape:snap-perpendicular="true"
     inkscape:snap-tangential="true"
     inkscape:window-width="3390"
     inkscape:window-height="1371"
     inkscape:window-x="50"
     inkscape:window-y="32"
     inkscape:window-maximized="1"
     units="px"
     showguides="true"
     inkscape:guide-bbox="true"
     inkscape:showpageshadow="2"
     inkscape:pagecheckerboard="0"
     inkscape:deskcolor="#d1d1d1" />
  <metadata
     id="metadata5">
    <rdf:RDF>
      <cc:Work
         rdf:about="">
        <dc:format>image/svg+xml</dc:format>
        <dc:type
           rdf:resource="http://purl.org/dc/dcmitype/StillImage" />
        <dc:title />
      </cc:Work>
    </rdf:RDF>
  </metadata>
  <g
     inkscape:groupmode="layer"
     id="layer4"
     inkscape:label="Layer 4"
     transform="translate(0,-191.16668)">
    <rect
       style="fill:#ff00ff;fill-opacity:1;stroke:none;stroke-width:0.26952896;stroke-miterlimit:4;stroke-dasharray:none"
       id="rect5043"
       width="45.68594"
       height="8.6424818"
       x="42.992817"
       y="208.66696" />
    <path
       style="fill:#ff00ff;stroke:none;stroke-width:0.12406686px;stroke-linecap:butt;stroke-linejoin:miter;stroke-opacity:1;fill-opacity:1"
       d="m 20.9076,218.45341 c 0,0 0.699024,-3.93995 1.461596,-5.14736 4.599979,-3.38449 12.803734,-7.23752 19.445585,-7.30798 3.558667,0.2542 4.638976,2.60546 6.736049,2.66901 0.508383,0.0636 0.317736,3.74931 0.317736,3.74931 l -24.021011,5.46509 z"
       id="path5026"
       inkscape:connector-curvature="0"
       sodipodi:nodetypes="ccccccc"
       inkscape:label="btnL"
       class="theme-button"
       ojd-button="L" />
    <path
       style="fill:#ff00ff;stroke:none;stroke-width:0.12406686px;stroke-linecap:butt;stroke-linejoin:miter;stroke-opacity:1;fill-opacity:1"
       d="m 111.07665,218.39982 c 0,0 -0.69902,-3.93997 -1.46159,-5.14737 -4.59998,-3.38448 -12.803731,-7.23751 -19.445585,-7.30798 -3.558669,0.2542 -4.638982,2.60546 -6.736051,2.66901 -0.508383,0.0636 -0.317741,3.7493 -0.317741,3.7493 l 24.021017,5.46511 z"
       id="path5026-7"
       inkscape:connector-curvature="0"
       sodipodi:nodetypes="ccccccc"
       inkscape:label="btnR"
       class="theme-button"
       ojd-button="R" />
    <rect
       style="opacity:1;fill:#ff00ff;fill-opacity:1;stroke:none;stroke-width:0.70509678;stroke-linejoin:round;stroke-miterlimit:4;stroke-dasharray:none;stroke-opacity:1"
       id="rect1842-40"
       width="20.145628"
       height="8.8976488"
       x="24.832777"
       y="194.59904"
       ry="3.1897235"
       inkscape:label="btnL2"
       class="theme-button"
       ojd-button="L2" />
    <rect
       style="opacity:1;fill:#ff00ff;fill-opacity:1;stroke:none;stroke-width:0.70509678;stroke-linejoin:round;stroke-miterlimit:4;stroke-dasharray:none;stroke-opacity:1"
       id="rect1842-4-9"
       width="20.145628"
       height="8.8976488"
       x="87.005844"
       y="194.59904"
       ry="3.1897235"
       inkscape:label="btnR2"
       class="theme-button"
       ojd-button="R2" />
    <rect
       style="opacity:1;fill:#ff00ff;fill-opacity:1;stroke:none;stroke-width:0.70509672;stroke-linejoin:round;stroke-miterlimit:4;stroke-dasharray:none;stroke-opacity:1"
       id="rect1842-40-0"
       width="20.14563"
       height="8.8976498"
       x="39.537884"
       y="272.62961"
       ry="3.1897237"
       inkscape:label="btnL3"
       class="theme-button"
       ojd-button="L3" />
    <rect
       style="opacity:1;fill:#ff00ff;fill-opacity:1;stroke:none;stroke-width:0.70509672;stroke-linejoin:round;stroke-miterlimit:4;stroke-dasharray:none;stroke-opacity:1"
       id="rect1842-4-9-3"
       width="20.14563"
       height="8.8976498"
       x="73.397995"
       y="272.62961"
       ry="3.1897237"
       inkscape:label="btnR3"
       class="theme-button"
       ojd-button="R3" />
  </g>
  <g
     inkscape:groupmode="layer"
     id="layer2"
     inkscape:label="Layer 2"
     style="display:inline;opacity:1"
     transform="translate(0,-191.16668)">
    <path
       inkscape:connector-curvature="0"
       style="fill:#ff00ff;fill-opacity:1;stroke:none;stroke-width:0.12406686px;stroke-linecap:butt;stroke-linejoin:miter;stroke-opacity:1"
       d="m 41.087761,210.09312 c -7.526694,-0.0791 -19.045314,5.36704 -23.993127,10.90867 l 11.71923,23.47215 37.283307,9.99004 37.283309,-9.99004 11.71923,-23.47215 c -5.75746,-6.44844 -20.412131,-12.76754 -27.321126,-10.40223 -0.841202,0.35589 -5.052281,1.38024 -7.503138,1.38024 -7.535142,0 -14.178275,-0.12697 -14.178275,-0.12697 0,0 -6.643131,0.12697 -14.178275,0.12697 -2.450858,0 -6.661934,-1.02434 -7.503138,-1.38024 -0.971577,-0.33262 -2.096355,-0.4935 -3.327997,-0.50644 z"
       id="path56" />
    <path
       class="theme-color-normal"
       inkscape:label="color-normal"
       style="fill:#ff00ff;fill-opacity:1;stroke:none;stroke-width:0.12406686px;stroke-linecap:butt;stroke-linejoin:miter;stroke-opacity:1"
       d="m 38.412086,212.5936 c -6.915637,0.076 -16.869941,5.7902 -21.317452,8.40819 -6.427879,16.44424 -27.557042,67.44847 -3.258693,73.81713 9.830945,2.70963 17.260377,-25.3337 28.699914,-24.43851 h 47.398632 c 11.439533,-0.89519 18.868743,27.14814 28.699673,24.43851 24.29835,-6.36866 2.89341,-57.37289 -3.53445,-73.81713 -5.809,-3.41941 -20.736545,-12.12085 -26.293213,-6.64242 -3.383815,3.63447 -7.143606,11.02877 -12.657971,11.27942 -6.868887,-0.12978 -13.418236,0.27862 -19.82671,0 -5.514364,-0.25065 -9.274155,-7.64495 -12.657971,-11.27942 -1.302344,-1.28401 -3.134728,-1.78904 -5.251759,-1.76577 z"
       id="path22"
       inkscape:connector-curvature="0"
       sodipodi:nodetypes="sccccccccccs" />
  </g>
  <g
     inkscape:groupmode="layer"
     id="layer3"
     inkscape:label="Layer 3"
     style="display:inline;opacity:1"
     transform="translate(0,-191.16668)">
    <circle
       style="display:inline;opacity:1;fill:#ff00ff;stroke:none;stroke-width:0.03441226;fill-opacity:1"
       id="path3917-1-7-6"
       cx="76.448257"
       cy="232.89941"
       r="3.1284983"
       inkscape:label="shadowStart" />
    <circle
       style="display:inline;opacity:1;fill:#ff00ff;stroke:none;stroke-width:0.03441226;fill-opacity:1"
       id="path3917-1-7-1-1"
       cx="57.129761"
       cy="232.89941"
       r="3.1284983"
       inkscape:label="shadowSelect" />
    <circle
       style="display:inline;opacity:1;fill:#ff00ff;stroke:none;stroke-width:0.04839223;fill-opacity:1"
       id="path3917-1-3"
       cx="91.851784"
       cy="233.68402"
       r="4.3994513"
       inkscape:label="shadowX" />
    <circle
       style="display:inline;opacity:1;fill:#ff00ff;stroke:none;stroke-width:0.04839223;fill-opacity:1"
       id="path3917-1-2-6"
       cx="100.81262"
       cy="224.5665"
       r="4.3994513"
       inkscape:label="shadowY" />
    <circle
       style="display:inline;opacity:1;fill:#ff00ff;stroke:none;stroke-width:0.04839223;fill-opacity:1"
       id="path3917-1-2-7-7"
       cx="109.58548"
       cy="233.68402"
       r="4.3994513"
       inkscape:label="shadowB" />
    <circle
       style="display:inline;opacity:1;fill:#ff00ff;stroke:none;stroke-width:0.04839223;fill-opacity:1"
       id="path3917-1-2-7-0-5"
       cx="100.81262"
       cy="242.61351"
       r="4.3994513"
       inkscape:label="shadowA" />
    <circle
       style="opacity:1;fill:#ff00ff;fill-opacity:1;stroke:none;stroke-width:0.12304763"
       id="path93"
       cx="32.687344"
       cy="232.66986"
       r="12.833616" />
    <circle
       style="display:inline;opacity:0.5;fill:#ff00ff;stroke:none;stroke-width:0.09396365;fill-opacity:1"
       id="path93-3"
       cx="32.687344"
       cy="232.66997"
       r="9.8002157" />
    <circle
       style="display:inline;opacity:0.37700004;fill:#ff00ff;fill-opacity:1;stroke:none;stroke-width:0.07606582"
       id="path93-3-5"
       cx="32.687344"
       cy="232.66997"
       r="7.9335079" />
    <circle
       style="display:inline;opacity:1;fill:#ff00ff;stroke:none;stroke-width:0.04839223;fill-opacity:1"
       id="path3917-1"
       cx="91.851784"
       cy="232.62567"
       r="4.3994513"
       inkscape:label="btnX"
       class="theme-button"
       ojd-button="X" />
    <circle
       style="display:inline;opacity:1;fill:#ff00ff;stroke:none;stroke-width:0.04839223;fill-opacity:1"
       id="path3917-1-2"
       cx="100.81262"
       cy="223.50815"
       r="4.3994513"
       inkscape:label="btnY"
       class="theme-button"
       ojd-button="Y" />
    <circle
       style="display:inline;opacity:1;fill:#ff00ff;stroke:none;stroke-width:0.04839223;fill-opacity:1"
       id="path3917-1-2-7"
       cx="109.58548"
       cy="232.62567"
       r="4.3994513"
       inkscape:label="btnB"
       class="theme-button"
       ojd-button="B" />
    <circle
       style="display:inline;opacity:1;fill:#ff00ff;stroke:none;stroke-width:0.04839223;fill-opacity:1"
       id="path3917-1-2-7-0"
       cx="100.81262"
       cy="241.55516"
       r="4.3994513"
       inkscape:label="btnA"
       class="theme-button"
       ojd-button="A" />
    <circle
       style="opacity:1;fill:#ff00ff;fill-opacity:1;stroke:none;stroke-width:0.24813375;stroke-miterlimit:4;stroke-dasharray:none"
       id="path3917"
       cx="49.281841"
       cy="254.69934"
       r="11.192384"
       inkscape:label="color-accent"
       class="theme-color-accent" />
    <path
       style="display:inline;opacity:1;fill:#ff00ff;stroke:none;stroke-width:0.12406686;fill-opacity:1"
       d="m 49.269975,245.21772 c -1.859108,4.7e-4 -3.481387,-0.0384 -3.481387,0.90893 h -2.4e-4 c -0.0018,1.85827 0,3.74198 0,5.60846 h -5.608451 c -0.967402,0 -0.90121,2.56483 -0.908937,3.50537 4.68e-4,1.85911 -0.0384,3.48138 0.908937,3.48138 v 2.5e-4 c 1.858275,0.002 3.741976,0 5.608451,0 v 5.60845 c 0,0.9674 2.564834,0.90121 3.505374,0.90894 1.859108,-4.8e-4 3.481382,0.0384 3.481382,-0.90894 h 2.44e-4 c 0.0018,-1.85828 0,-3.74198 0,-5.60845 h 5.608454 c 0.967402,0 0.901206,-2.56484 0.908932,-3.50538 -4.76e-4,-1.85911 0.0384,-3.48138 -0.908932,-3.48138 v -2.4e-4 c -1.858276,-0.002 -3.741979,0 -5.608454,0 v -5.60846 c 0,-0.9674 -2.564838,-0.9012 -3.505373,-0.90893 z"
       id="rect261-3"
       inkscape:connector-curvature="0" />
    <path
       style="display:inline;opacity:1;fill:#ff00ff;fill-opacity:1;stroke:none;stroke-width:0.12406686"
       d="m 49.269975,244.42398 c -1.859108,4.7e-4 -3.481387,-0.0384 -3.481387,0.90893 h -2.4e-4 c -0.0018,1.85827 0,3.74198 0,5.60846 h -5.608451 c -0.967402,0 -0.90121,2.56483 -0.908937,3.50537 4.68e-4,1.85911 -0.0384,3.48138 0.908937,3.48138 v 2.5e-4 c 1.858275,0.002 3.741976,0 5.608451,0 v 5.60845 c 0,0.9674 2.564834,0.90121 3.505374,0.90894 1.859108,-4.8e-4 3.481382,0.0384 3.481382,-0.90894 h 2.44e-4 c 0.0018,-1.85828 0,-3.74198 0,-5.60845 h 5.608453 c 0.967403,0 0.901206,-2.56484 0.908933,-3.50538 -4.69e-4,-1.85911 0.0384,-3.48138 -0.908933,-3.48138 v -2.4e-4 c -1.858275,-0.002 -3.741978,0 -5.608453,0 v -5.60846 c 0,-0.9674 -2.564838,-0.9012 -3.505373,-0.90893 z"
       id="rect261"
       inkscape:connector-curvature="0" />
    <circle
       style="display:inline;opacity:1;fill:#ff00ff;stroke:none;stroke-width:0.03441226;fill-opacity:1"
       id="path3917-1-7"
       cx="76.448257"
       cy="232.37024"
       r="3.1284983"
       inkscape:label="btnStart"
       class="theme-button"
       ojd-button="START" />
    <circle
       style="display:inline;opacity:1;fill:#ff00ff;stroke:none;stroke-width:0.03441226;fill-opacity:1"
       id="path3917-1-7-1"
       cx="57.129761"
       cy="232.37024"
       r="3.1284983"
       inkscape:label="btnSelect"
       class="theme-button"
       ojd-button="SELECT" />
    <circle
       style="fill:#ff00ff;stroke:none;stroke-width:0.23445709;stroke-miterlimit:4;stroke-dasharray:none;fill-opacity:1"
       id="path4980"
       cx="66.19696"
       cy="218.65364"
       r="5.9734797"
       inkscape:label="btnXbox" />
    <path
       inkscape:transform-center-y="2.0528234e-06"
       inkscape:transform-center-x="-0.68981452"
       d="m 54.473045,246.76132 4.583737,2.64643 -4.583737,2.64642 z"
       inkscape:randomized="0"
       inkscape:rounded="0"
       inkscape:flatsided="true"
       sodipodi:arg2="-1.0471976"
       sodipodi:arg1="-2.0943951"
       sodipodi:r2="1.5279123"
       sodipodi:r1="3.0558243"
       sodipodi:cy="249.40775"
       sodipodi:cx="56.000957"
       sodipodi:sides="3"
       id="path868-7"
       style="opacity:1;fill:#ff00ff;fill-opacity:1;stroke:none;stroke-width:0.47220892;stroke-linejoin:round;stroke-miterlimit:4;stroke-dasharray:none;stroke-opacity:1"
       sodipodi:type="star"
       transform="matrix(0,-0.90295116,0.90295116,0,-175.81147,299.08881)"
       inkscape:label="btnUp"
       class="theme-button"
       ojd-button="UP" />
    <path
       inkscape:transform-center-y="1.5899322e-06"
       inkscape:transform-center-x="-0.68981447"
       d="m 54.078935,252.20007 4.13889,2.38959 -4.13889,2.38959 z"
       inkscape:randomized="0"
       inkscape:rounded="0"
       inkscape:flatsided="true"
       sodipodi:arg2="-1.0471976"
       sodipodi:arg1="-2.0943951"
       sodipodi:r2="1.3796301"
       sodipodi:r1="2.7592602"
       sodipodi:cy="254.58966"
       sodipodi:cx="55.458565"
       sodipodi:sides="3"
       id="path868"
       style="opacity:1;fill:#ff00ff;fill-opacity:1;stroke:none;stroke-width:0.42638159;stroke-linejoin:round;stroke-miterlimit:4;stroke-dasharray:none;stroke-opacity:1"
       sodipodi:type="star"
       inkscape:label="btnRight"
       class="theme-button"
       ojd-button="RIGHT" />
    <path
       inkscape:transform-center-y="1.5899321e-06"
       inkscape:transform-center-x="-0.6898117"
       d="m -44.704135,-256.97925 4.13889,2.38959 -4.13889,2.38959 z"
       inkscape:randomized="0"
       inkscape:rounded="0"
       inkscape:flatsided="true"
       sodipodi:arg2="-1.0471976"
       sodipodi:arg1="-2.0943951"
       sodipodi:r2="1.3796301"
       sodipodi:r1="2.7592602"
       sodipodi:cy="-254.58966"
       sodipodi:cx="-43.324505"
       sodipodi:sides="3"
       id="path868-5"
       style="opacity:1;fill:#ff00ff;fill-opacity:1;stroke:none;stroke-width:0.42638159;stroke-linejoin:round;stroke-miterlimit:4;stroke-dasharray:none;stroke-opacity:1"
       sodipodi:type="star"
       transform="scale(-1)"
       inkscape:label="btnLeft"
       class="theme-button"
       ojd-button="LEFT" />
    <path
       inkscape:transform-center-y="2.1094104e-06"
       inkscape:transform-center-x="-0.68981254"
       d="m 54.473045,246.76132 4.583737,2.64643 -4.583737,2.64642 z"
       inkscape:randomized="0"
       inkscape:rounded="0"
       inkscape:flatsided="true"
       sodipodi:arg2="-1.0471976"
       sodipodi:arg1="-2.0943951"
       sodipodi:r2="1.5279123"
       sodipodi:r1="3.0558243"
       sodipodi:cy="249.40775"
       sodipodi:cx="56.000957"
       sodipodi:sides="3"
       id="path868-1"
       style="opacity:1;fill:#ff00ff;fill-opacity:1;stroke:none;stroke-width:0.47220892;stroke-linejoin:round;stroke-miterlimit:4;stroke-dasharray:none;stroke-opacity:1"
       sodipodi:type="star"
       transform="matrix(0,0.90295116,-0.90295116,0,274.59451,210.09061)"
       inkscape:label="btnDown"
       class="theme-button"
       ojd-button="DOWN" />
    <circle
       style="opacity:1;fill:#ff00ff;fill-opacity:1;stroke:none;stroke-width:0.12304763"
       id="path93-7"
       cx="84.022942"
       cy="254.71104"
       r="12.833616" />
    <circle
       style="display:inline;opacity:0.5;fill:#ff00ff;stroke:none;stroke-width:0.09396365;fill-opacity:1"
       id="path93-3-0"
       cx="84.022942"
       cy="254.71115"
       r="9.8002157" />
    <circle
       style="display:inline;opacity:0.37700004;fill:#ff00ff;fill-opacity:1;stroke:none;stroke-width:0.07606582"
       id="path93-3-5-93"
       cx="84.022942"
       cy="254.71115"
       r="7.9335079" />
  </g>
</svg>
