<?xml version="1.0" encoding="UTF-8" standalone="no"?>
<!-- Created with Inkscape (http://www.inkscape.org/) -->

<svg
   width="500"
   height="300"
   viewBox="0 0 132.29166 79.375002"
   version="1.1"
   id="svg8"
   inkscape:version="1.3.2 (1:1.3.2+202404261509+091e20ef0f)"
   sodipodi:docname="streamer-analog-mask.svg"
   xmlns:inkscape="http://www.inkscape.org/namespaces/inkscape"
   xmlns:sodipodi="http://sodipodi.sourceforge.net/DTD/sodipodi-0.dtd"
   xmlns="http://www.w3.org/2000/svg"
   xmlns:svg="http://www.w3.org/2000/svg"
   xmlns:rdf="http://www.w3.org/1999/02/22-rdf-syntax-ns#"
   xmlns:cc="http://creativecommons.org/ns#"
   xmlns:dc="http://purl.org/dc/elements/1.1/">
  <defs
     id="defs2" />
  <sodipodi:namedview
     id="base"
     pagecolor="#ffffff"
     bordercolor="#666666"
     borderopacity="1.0"
     inkscape:pageopacity="0.0"
     inkscape:pageshadow="2"
     inkscape:zoom="1.4142136"
     inkscape:cx="267.99346"
     inkscape:cy="175.71603"
     inkscape:document-units="mm"
     inkscape:current-layer="layer2"
     showgrid="false"
     units="px"
     inkscape:window-width="1721"
     inkscape:window-height="974"
     inkscape:window-x="1433"
     inkscape:window-y="429"
     inkscape:window-maximized="0"
     inkscape:showpageshadow="2"
     inkscape:pagecheckerboard="0"
     inkscape:deskcolor="#d1d1d1" />
  <metadata
     id="metadata5">
    <rdf:RDF>
      <cc:Work
         rdf:about="">
        <dc:format>image/svg+xml</dc:format>
        <dc:type
           rdf:resource="http://purl.org/dc/dcmitype/StillImage" />
        <dc:title />
      </cc:Work>
    </rdf:RDF>
  </metadata>
  <g
     inkscape:groupmode="layer"
     id="layer2"
     inkscape:label="Layer 2">
    <circle
       style="opacity:1;fill:#ff00ff;fill-opacity:1;stroke:none;stroke-width:0.63313717;stroke-linejoin:round;stroke-miterlimit:4;stroke-dasharray:none;stroke-opacity:1"
       id="path1143-0"
       cx="124.78239"
       cy="40.172523"
       r="6.1236744"
       inkscape:label="btnCircle"
       class="theme-button"
       ojd-button="CIRCLE" />
    <circle
       style="opacity:1;fill:#ff00ff;fill-opacity:1;stroke:none;stroke-width:0.63313717;stroke-linejoin:round;stroke-miterlimit:4;stroke-dasharray:none;stroke-opacity:1"
       id="path1143-0-3"
       cx="96.681686"
       cy="40.172523"
       r="6.1236744"
       inkscape:label="btnSquare"
       class="theme-button"
       ojd-button="SQUARE" />
    <circle
       style="opacity:1;fill:#ff00ff;fill-opacity:1;stroke:none;stroke-width:0.63313717;stroke-linejoin:round;stroke-miterlimit:4;stroke-dasharray:none;stroke-opacity:1"
       id="path1143-0-9"
       cx="110.53987"
       cy="54.222851"
       r="6.1236744"
       inkscape:label="btnCross"
       class="theme-button"
       ojd-button="CROSS" />
    <circle
       style="opacity:1;fill:#ff00ff;fill-opacity:1;stroke:none;stroke-width:0.63313717;stroke-linejoin:round;stroke-miterlimit:4;stroke-dasharray:none;stroke-opacity:1"
       id="path1143-0-9-1"
       cx="110.53987"
       cy="26.122139"
       r="6.1236744"
       inkscape:label="btnTriangle"
       class="theme-button"
       ojd-button="TRIANGLE" />
    <g
       aria-label="SELECT"
       style="font-style:normal;font-weight:normal;font-size:2.59608364px;line-height:1.25;font-family:sans-serif;letter-spacing:0px;word-spacing:0px;fill:#ff00ff;fill-opacity:1;stroke:none;stroke-width:0.0649021"
       id="text1497"
       transform="matrix(1.2690156,0,0,1.2690156,-14.248467,9.5330255)"
       inkscape:label="lblSelect"
       class="theme-label"
       ojd-button="SELECT">
      <path
         d="m 50.089582,27.051001 v 0.249721 q -0.145776,-0.06972 -0.275073,-0.103945 -0.129297,-0.03422 -0.249721,-0.03422 -0.209157,0 -0.323243,0.08113 -0.112818,0.08113 -0.112818,0.230707 0,0.125494 0.07479,0.190143 0.07606,0.06338 0.286482,0.102677 l 0.15465,0.03169 q 0.286482,0.05451 0.422117,0.192679 0.136903,0.136902 0.136903,0.367609 0,0.275073 -0.185073,0.417047 -0.183804,0.141973 -0.540005,0.141973 -0.134368,0 -0.286482,-0.03042 -0.150847,-0.03042 -0.313102,-0.09 v -0.263665 q 0.155917,0.08747 0.305496,0.131833 0.149579,0.04437 0.294088,0.04437 0.219298,0 0.338454,-0.0862 0.119156,-0.0862 0.119156,-0.245918 0,-0.139438 -0.0862,-0.21803 -0.08493,-0.07859 -0.280144,-0.117889 l -0.155917,-0.03042 q -0.286482,-0.05704 -0.414511,-0.178734 -0.12803,-0.121691 -0.12803,-0.338454 0,-0.250989 0.176199,-0.395497 0.177467,-0.144509 0.488034,-0.144509 0.133099,0 0.27127,0.02408 0.13817,0.02409 0.282679,0.07225 z"
         style="fill:#ff00ff;stroke-width:0.0649021;fill-opacity:1"
         id="path1967"
         inkscape:connector-curvature="0" />
      <path
         d="M 50.602968,26.988888 H 51.7996 v 0.215495 h -0.940573 v 0.560288 h 0.901277 v 0.215495 h -0.901277 v 0.685782 h 0.96339 v 0.215495 h -1.219449 z"
         style="fill:#ff00ff;stroke-width:0.0649021;fill-opacity:1"
         id="path1969"
         inkscape:connector-curvature="0" />
      <path
         d="m 52.245802,26.988888 h 0.256059 v 1.67706 h 0.921559 v 0.215495 h -1.177618 z"
         style="fill:#ff00ff;stroke-width:0.0649021;fill-opacity:1"
         id="path1971"
         inkscape:connector-curvature="0" />
      <path
         d="m 53.690888,26.988888 h 1.196632 v 0.215495 h -0.940573 v 0.560288 h 0.901277 v 0.215495 h -0.901277 v 0.685782 h 0.96339 v 0.215495 h -1.219449 z"
         style="fill:#ff00ff;stroke-width:0.0649021;fill-opacity:1"
         id="path1973"
         inkscape:connector-curvature="0" />
      <path
         d="m 56.75092,27.134664 v 0.270003 q -0.129297,-0.120424 -0.276341,-0.180002 -0.145776,-0.05958 -0.310567,-0.05958 -0.32451,0 -0.496906,0.199016 -0.172397,0.197749 -0.172397,0.572964 0,0.373947 0.172397,0.572964 0.172396,0.197748 0.496906,0.197748 0.164791,0 0.310567,-0.05958 0.147044,-0.05958 0.276341,-0.180002 v 0.267468 q -0.134368,0.09127 -0.285214,0.136903 -0.14958,0.04563 -0.316905,0.04563 -0.429723,0 -0.676909,-0.262397 -0.247185,-0.263665 -0.247185,-0.71874 0,-0.456343 0.247185,-0.71874 0.247186,-0.263665 0.676909,-0.263665 0.169861,0 0.31944,0.04563 0.150846,0.04437 0.282679,0.134368 z"
         style="fill:#ff00ff;stroke-width:0.0649021;fill-opacity:1"
         id="path1975"
         inkscape:connector-curvature="0" />
      <path
         d="m 56.886555,26.988888 h 1.601002 v 0.215495 h -0.671838 v 1.67706 h -0.257326 v -1.67706 h -0.671838 z"
         style="fill:#ff00ff;stroke-width:0.0649021;fill-opacity:1"
         id="path1977"
         inkscape:connector-curvature="0" />
    </g>
    <g
       aria-label="START"
       style="font-style:normal;font-weight:normal;font-size:2.59608364px;line-height:1.25;font-family:sans-serif;letter-spacing:0px;word-spacing:0px;fill:#ff00ff;fill-opacity:1;stroke:none;stroke-width:0.0649021"
       id="text1497-6"
       transform="matrix(1.2690156,0,0,1.2690156,-22.306717,9.5330255)"
       inkscape:label="lblStart"
       class="theme-label"
       ojd-button="START">
      <path
         d="m 75.558523,27.051003 v 0.249721 q -0.145776,-0.06972 -0.275074,-0.103945 -0.129297,-0.03422 -0.249721,-0.03422 -0.209157,0 -0.323242,0.08113 -0.112818,0.08113 -0.112818,0.230707 0,0.125494 0.07479,0.190143 0.07606,0.06338 0.286482,0.102677 l 0.154649,0.03169 q 0.286482,0.05451 0.422118,0.192678 0.136902,0.136903 0.136902,0.36761 0,0.275073 -0.185072,0.417047 -0.183805,0.141973 -0.540006,0.141973 -0.134367,0 -0.286482,-0.03042 -0.150846,-0.03042 -0.313101,-0.09 v -0.263665 q 0.155917,0.08747 0.305496,0.131833 0.149579,0.04437 0.294087,0.04437 0.219298,0 0.338455,-0.0862 0.119156,-0.0862 0.119156,-0.245918 0,-0.139438 -0.0862,-0.21803 -0.08493,-0.07859 -0.280144,-0.117889 l -0.155917,-0.03042 Q 74.5964,27.954815 74.46837,27.833124 74.340341,27.711433 74.340341,27.49467 q 0,-0.250989 0.176199,-0.395497 0.177467,-0.144509 0.488033,-0.144509 0.1331,0 0.271271,0.02408 0.13817,0.02408 0.282679,0.07225 z"
         style="fill:#ff00ff;stroke-width:0.0649021;fill-opacity:1"
         id="path1956"
         inkscape:connector-curvature="0" />
      <path
         d="m 75.809511,26.98889 h 1.601003 v 0.215495 h -0.671838 v 1.67706 h -0.257327 v -1.67706 h -0.671838 z"
         style="fill:#ff00ff;stroke-width:0.0649021;fill-opacity:1"
         id="path1958"
         inkscape:connector-curvature="0" />
      <path
         d="m 78.08869,27.241146 -0.347327,0.941841 h 0.695922 z M 77.944182,26.98889 h 0.290284 l 0.721276,1.892555 h -0.2662 l -0.172397,-0.485498 h -0.853107 l -0.172396,0.485498 h -0.270003 z"
         style="fill:#ff00ff;stroke-width:0.0649021;fill-opacity:1"
         id="path1960"
         inkscape:connector-curvature="0" />
      <path
         d="m 80.128289,27.994112 q 0.0824,0.02789 0.15972,0.119156 0.07859,0.09127 0.157185,0.250988 l 0.259862,0.517189 h -0.275073 l -0.242116,-0.485498 q -0.0938,-0.190143 -0.182537,-0.252256 -0.08746,-0.06211 -0.23958,-0.06211 h -0.278876 v 0.799868 H 79.230815 V 26.98889 h 0.578034 q 0.324511,0 0.484231,0.135635 0.15972,0.135635 0.15972,0.409441 0,0.178734 -0.08366,0.296623 -0.08239,0.117888 -0.240848,0.163523 z m -0.641415,-0.794797 v 0.671838 h 0.321975 q 0.185073,0 0.278877,-0.08493 0.09507,-0.0862 0.09507,-0.252256 0,-0.166058 -0.09507,-0.249721 -0.0938,-0.08493 -0.278877,-0.08493 z"
         style="fill:#ff00ff;stroke-width:0.0649021;fill-opacity:1"
         id="path1962"
         inkscape:connector-curvature="0" />
      <path
         d="m 80.5859,26.98889 h 1.601002 v 0.215495 h -0.671838 v 1.67706 h -0.257326 v -1.67706 H 80.5859 Z"
         style="fill:#ff00ff;stroke-width:0.0649021;fill-opacity:1"
         id="path1964"
         inkscape:connector-curvature="0" />
    </g>
    <path
       sodipodi:type="star"
       style="opacity:1;fill:#ff00ff;fill-opacity:1;stroke:none;stroke-width:0.55562496;stroke-linejoin:round;stroke-miterlimit:4;stroke-dasharray:none;stroke-opacity:1"
       id="path1543"
       sodipodi:sides="3"
       sodipodi:cx="42.696308"
       sodipodi:cy="32.268745"
       sodipodi:r1="2.4323845"
       sodipodi:r2="1.2161922"
       sodipodi:arg1="1.0471976"
       sodipodi:arg2="2.0943951"
       inkscape:flatsided="true"
       inkscape:rounded="0"
       inkscape:randomized="0"
       d="M 43.9125,34.375252 40.263924,32.268745 43.9125,30.162239 Z"
       inkscape:transform-center-x="-0.58925404"
       transform="matrix(0.4845065,-1.1570231,0.83918987,0.66800755,-9.9580105,66.865794)"
       inkscape:label="btnRight"
       class="theme-button"
       ojd-button="RIGHT"
       inkscape:transform-center-y="-3.2454492e-06" />
    <path
       sodipodi:type="star"
       style="opacity:1;fill:#ff00ff;fill-opacity:1;stroke:none;stroke-width:0.55562496;stroke-linejoin:round;stroke-miterlimit:4;stroke-dasharray:none;stroke-opacity:1"
       id="path1543-1"
       sodipodi:sides="3"
       sodipodi:cx="42.696308"
       sodipodi:cy="32.268745"
       sodipodi:r1="2.4323845"
       sodipodi:r2="1.2161922"
       sodipodi:arg1="1.0471976"
       sodipodi:arg2="2.0943951"
       inkscape:flatsided="true"
       inkscape:rounded="0"
       inkscape:randomized="0"
       d="M 43.9125,34.375252 40.263924,32.268745 43.9125,30.162239 Z"
       inkscape:transform-center-x="-0.589252"
       transform="matrix(-1.1570231,-0.4845065,0.66800757,-0.83918985,48.513419,69.647539)"
       inkscape:label="btnUp"
       class="theme-button"
       ojd-button="UP" />
    <path
       sodipodi:type="star"
       style="opacity:1;fill:#ff00ff;fill-opacity:1;stroke:none;stroke-width:0.55562496;stroke-linejoin:round;stroke-miterlimit:4;stroke-dasharray:none;stroke-opacity:1"
       id="path1543-1-1"
       sodipodi:sides="3"
       sodipodi:cx="42.696308"
       sodipodi:cy="32.268745"
       sodipodi:r1="2.4323845"
       sodipodi:r2="1.2161922"
       sodipodi:arg1="1.0471976"
       sodipodi:arg2="2.0943951"
       inkscape:flatsided="true"
       inkscape:rounded="0"
       inkscape:randomized="0"
       d="M 43.9125,34.375252 40.263924,32.268745 43.9125,30.162239 Z"
       inkscape:transform-center-x="-0.5892541"
       transform="matrix(-0.4845065,1.1570231,-0.83918985,-0.66800757,51.295157,11.176042)"
       inkscape:label="btnLeft"
       class="theme-button"
       ojd-button="LEFT"
       inkscape:transform-center-y="2.3191968e-06" />
    <path
       sodipodi:type="star"
       style="opacity:1;fill:#ff00ff;fill-opacity:1;stroke:none;stroke-width:0.55562496;stroke-linejoin:round;stroke-miterlimit:4;stroke-dasharray:none;stroke-opacity:1"
       id="path1543-1-1-9"
       sodipodi:sides="3"
       sodipodi:cx="42.696308"
       sodipodi:cy="32.268745"
       sodipodi:r1="2.4323845"
       sodipodi:r2="1.2161922"
       sodipodi:arg1="1.0471976"
       sodipodi:arg2="2.0943951"
       inkscape:flatsided="true"
       inkscape:rounded="0"
       inkscape:randomized="0"
       d="M 43.9125,34.375252 40.263924,32.268745 43.9125,30.162239 Z"
       inkscape:transform-center-x="-0.5892563"
       transform="matrix(1.1570231,0.4845065,-0.66800757,0.83918985,-7.1762722,8.3943045)"
       inkscape:label="btnDown"
       class="theme-button"
       ojd-button="DOWN" />
    <path
       style="opacity:1;fill:#ff00ff;stroke:none;stroke-width:0.35348731px;stroke-linecap:butt;stroke-linejoin:miter;stroke-opacity:1;fill-opacity:1"
       d="m 27.800822,34.717708 -4.439628,4.439626 4.184848,4.184857 h 6.564766 v -8.71094 z"
       id="path1372-1"
       inkscape:connector-curvature="0"
       inkscape:label="btnRight"
       class="theme-button"
       ojd-button="RIGHT" />
    <path
       style="opacity:1;fill:#ff00ff;stroke:none;stroke-width:0.35348731px;stroke-linecap:butt;stroke-linejoin:miter;stroke-opacity:1;fill-opacity:1"
       d="m 16.400778,31.853235 4.439631,4.439651 4.184853,-4.18487 V 25.54322 h -8.71094 z"
       id="path1372-6-4"
       inkscape:connector-curvature="0"
       inkscape:label="btnUp"
       class="theme-button"
       ojd-button="UP" />
    <path
       style="opacity:1;fill:#ff00ff;stroke:none;stroke-width:0.35348731px;stroke-linecap:butt;stroke-linejoin:miter;stroke-opacity:1;fill-opacity:1"
       d="m 24.936371,46.117744 -4.439632,-4.439625 -4.184853,4.184845 v 6.56477 h 8.710939 z"
       id="path1372-69-9"
       inkscape:connector-curvature="0"
       inkscape:label="btnDown"
       class="theme-button"
       ojd-button="DOWN" />
    <path
       style="opacity:1;fill:#ff00ff;stroke:none;stroke-width:0.35348731px;stroke-linecap:butt;stroke-linejoin:miter;stroke-opacity:1;fill-opacity:1"
       d="m 13.344395,43.445921 4.439628,-4.439626 -4.184848,-4.184857 H 7.0344081 v 8.710942 z"
       id="path1372-2-1"
       inkscape:connector-curvature="0"
       inkscape:label="btnLeft"
       class="theme-button"
       ojd-button="LEFT" />
    <rect
       style="opacity:1;fill:#ff00ff;fill-opacity:1;stroke:none;stroke-width:0.81326932;stroke-linejoin:round;stroke-miterlimit:4;stroke-dasharray:none;stroke-opacity:1"
       id="rect1037-7"
       width="9.089674"
       height="5.5548"
       x="49.326797"
       y="36.266827"
       inkscape:label="btnSelect"
       class="theme-button"
       ojd-button="SELECT" />
    <path
       sodipodi:type="star"
       style="opacity:1;fill:#ff00ff;fill-opacity:1;stroke:none;stroke-width:0.52916664;stroke-linejoin:round;stroke-miterlimit:4;stroke-dasharray:none;stroke-opacity:1"
       id="path1039-0"
       sodipodi:sides="3"
       sodipodi:cx="60.231709"
       sodipodi:cy="33.189388"
       sodipodi:r1="2.1568668"
       sodipodi:r2="1.0784334"
       sodipodi:arg1="2.0943951"
       sodipodi:arg2="3.1415927"
       inkscape:flatsided="true"
       inkscape:rounded="0"
       inkscape:randomized="0"
       d="m 59.153275,35.05729 0,-3.735803 3.2353,1.867901 z"
       inkscape:transform-center-x="-1.3516202"
       transform="matrix(2.5066527,0,0,1.5387756,-75.320569,-12.249906)"
       inkscape:label="btnStart"
       class="theme-button"
       ojd-button="START"
       inkscape:transform-center-y="3.0092244e-06" />
    <rect
       style="opacity:1;fill:#ff00ff;fill-opacity:1;stroke:none;stroke-width:0.70509678;stroke-linejoin:round;stroke-miterlimit:4;stroke-dasharray:none;stroke-opacity:1"
       id="rect1842"
       width="20.145626"
       height="8.8976488"
       x="35.854321"
       y="14.055059"
       ry="3.1897235"
       inkscape:label="btnL"
       class="theme-button"
       ojd-button="L" />
    <rect
       style="opacity:1;fill:#ff00ff;fill-opacity:1;stroke:none;stroke-width:0.70509678;stroke-linejoin:round;stroke-miterlimit:4;stroke-dasharray:none;stroke-opacity:1"
       id="rect1842-4"
       width="20.145626"
       height="8.8976488"
       x="73.963104"
       y="14.055059"
       ry="3.1897235"
       inkscape:label="btnR1"
       class="theme-button"
       ojd-button="R" />
    <rect
       style="opacity:1;fill:#ff00ff;fill-opacity:1;stroke:none;stroke-width:0.70509678;stroke-linejoin:round;stroke-miterlimit:4;stroke-dasharray:none;stroke-opacity:1"
       id="rect1842-40"
       width="20.145626"
       height="8.8976488"
       x="35.854321"
       y="3.8143654"
       ry="3.1897235"
       inkscape:label="btnL2"
       class="theme-button"
       ojd-button="L2" />
    <rect
       style="opacity:1;fill:#ff00ff;fill-opacity:1;stroke:none;stroke-width:0.70509678;stroke-linejoin:round;stroke-miterlimit:4;stroke-dasharray:none;stroke-opacity:1"
       id="rect1842-4-9"
       width="20.145626"
       height="8.8976488"
       x="73.963104"
       y="3.8143654"
       ry="3.1897235"
       inkscape:label="btnR2"
       class="theme-button"
       ojd-button="R2" />
    <rect
       style="opacity:1;fill:#ff00ff;fill-opacity:1;stroke:none;stroke-width:0.70509672;stroke-linejoin:round;stroke-miterlimit:4;stroke-dasharray:none;stroke-opacity:1"
       id="rect1842-40-0"
       width="20.145628"
       height="8.8976498"
       x="3.1138039"
       y="68.003143"
       ry="3.1897237"
       inkscape:label="btnL3"
       class="theme-button"
       ojd-button="L3" />
    <rect
       style="opacity:1;fill:#ff00ff;fill-opacity:1;stroke:none;stroke-width:0.70509672;stroke-linejoin:round;stroke-miterlimit:4;stroke-dasharray:none;stroke-opacity:1"
       id="rect1842-4-9-3"
       width="20.145628"
       height="8.8976498"
       x="109.88413"
       y="68.003143"
       ry="3.1897237"
       inkscape:label="btnR3"
       class="theme-button"
       ojd-button="R3" />
    <circle
       style="opacity:1;fill:#ff00ff;fill-opacity:1;stroke:#ff00ff;stroke-width:1.05833328;stroke-linejoin:round;stroke-miterlimit:4;stroke-dasharray:none;stroke-opacity:1"
       id="path895"
       cx="48.234024"
       cy="67.328865"
       r="9.2129736" />
    <circle
       style="opacity:1;fill:#ff00ff;fill-opacity:1;stroke:#ff00ff;stroke-width:1.05833328;stroke-linejoin:round;stroke-miterlimit:4;stroke-dasharray:none;stroke-opacity:1"
       id="path895-7"
       cx="82.824333"
       cy="67.328865"
       r="9.2129736" />
  </g>
</svg>
